<svg xmlns="http://www.w3.org/2000/svg" width="171.751" height="64.347" viewBox="0 0 171.751 64.347">
  <g id="Group_25167" data-name="Group 25167" transform="translate(20779.001 6294)">
    <path id="Path_40359" data-name="Path 40359" d="M108.552,113.763,82.367,136.3v.051l11.118,9.579L119.7,123.358Z" transform="translate(-20861.367 -6407.763)" fill="#a6ce39"/>
    <path id="Path_40360" data-name="Path 40360" d="M82.367,172.26v19.267L97.4,204.467l11.149-9.6Z" transform="translate(-20861.367 -6443.72)" fill="#2a5293"/>
    <path id="Path_40405" data-name="Path 40405" d="M263.205,156.3h8.133l-.538,31.57h-8.152Z" transform="translate(-20972.18 -6433.908)" fill="#1d3a6d"/>
    <path id="Path_40406" data-name="Path 40406" d="M295.619,156.3h9.515l-11.861,15.373,11.581,16.2h-9.883L284.629,171.8Z" transform="translate(-20985.691 -6433.908)" fill="#a6ce39"/>
    <path id="Path_40407" data-name="Path 40407" d="M360.437,156.421l-1.178,5.9a30.741,30.741,0,0,0-3.827-.887,22.454,22.454,0,0,0-3.642-.3,6.378,6.378,0,0,0-3.26.726,2.15,2.15,0,0,0-1.232,1.883q0,1.576,3.842,3.334c.911.418,1.611.757,2.1,1a15.653,15.653,0,0,1,5.647,4.311,9.327,9.327,0,0,1,1.733,5.678,8.288,8.288,0,0,1-3.365,6.855q-3.367,2.62-8.95,2.621a27.238,27.238,0,0,1-4.66-.411,33.266,33.266,0,0,1-4.863-1.238l1.187-6.192q2.681.78,4.6,1.151a17.876,17.876,0,0,0,3.293.369,5.066,5.066,0,0,0,2.7-.647,1.92,1.92,0,0,0,1.051-1.68,2.559,2.559,0,0,0-.319-1.231,3.7,3.7,0,0,0-.934-1.062,22.657,22.657,0,0,0-3.463-2.09q-1.386-.71-2.12-1.112a11.711,11.711,0,0,1-4.213-3.8,8.945,8.945,0,0,1-1.463-4.984,8.536,8.536,0,0,1,3.315-7.176q3.321-2.54,9.376-2.545a23.7,23.7,0,0,1,4.046.38,37.184,37.184,0,0,1,4.6,1.145" transform="translate(-21018.979 -6433.046)" fill="#1d3a6d"/>
    <path id="Path_40408" data-name="Path 40408" d="M404.541,156.3h21.924l-.091,6.545H412.54l-.088,6.164h13.631l-.091,6.367H412.316l-.177,12.494h-8.159Z" transform="translate(-21059.053 -6433.908)" fill="#1d3a6d"/>
    <path id="Path_40409" data-name="Path 40409" d="M470.07,156.3h22.013l-.044,6.122H478.073l-.091,6.275h13.762l-.086,6.126H477.85l-.1,6.77h14.107l-.117,6.277H469.509Z" transform="translate(-21099.334 -6433.908)" fill="#1d3a6d"/>
    <path id="Path_40410" data-name="Path 40410" d="M147.6,197.273,121.39,219.842l11.149,9.6,26.186-22.54v-.052Z" transform="translate(-20885.354 -6459.094)" fill="#1d3a6d"/>
    <path id="Path_40411" data-name="Path 40411" d="M161.469,138.664l-11.146,9.6,26.186,22.61V151.609Z" transform="translate(-20903.137 -6423.069)" fill="#2a5293"/>
  </g>
</svg>
